<?xml version="1.0" encoding="utf-8"?>
<!-- Generator: Adobe Illustrator 23.0.1, SVG Export Plug-In . SVG Version: 6.00 Build 0)  -->
<svg version="1.1" id="Ebene_1" xmlns="http://www.w3.org/2000/svg" xmlns:xlink="http://www.w3.org/1999/xlink" x="0px" y="0px"
	 viewBox="0 0 99.89 99.89" style="enable-background:new 0 0 99.89 99.89;" xml:space="preserve">
<style type="text/css">
	.st0{fill:url(#SVGID_1_);}
	.st1{fill:url(#SVGID_2_);}
	.st2{fill:url(#SVGID_3_);}
</style>
<g>
	<radialGradient id="SVGID_1_" cx="49.8751" cy="86.1398" r="80.6843" gradientUnits="userSpaceOnUse">
		<stop  offset="0" style="stop-color:#29235C"/>
		<stop  offset="0.3636" style="stop-color:#0F4176"/>
		<stop  offset="0.5515" style="stop-color:#F7A804"/>
		<stop  offset="1" style="stop-color:#EA5B0C"/>
	</radialGradient>
	<path class="st0" d="M28.7,12.12c-8.05-5.55-18.01-5.07-22.25,1.07c10.6-4.9,40.98,41.18,48.06,55.57
		c7.05,14.32-3.29,32.06-18.75,12.42c2.04,6.51,6.71,10.87,12.4,10.83c7.46-0.05,13.47-8.01,13.4-17.79
		C61.46,58.34,40.84,20.49,28.7,12.12z"/>
	
		<radialGradient id="SVGID_2_" cx="10062.585" cy="458.8014" r="68.557" gradientTransform="matrix(-0.5077 0.8615 -0.8615 -0.5077 5525.7656 -8420.7725)" gradientUnits="userSpaceOnUse">
		<stop  offset="0" style="stop-color:#F7A804"/>
		<stop  offset="0.2342" style="stop-color:#F8A80A"/>
		<stop  offset="0.3185" style="stop-color:#F8AB1A"/>
		<stop  offset="0.3786" style="stop-color:#F9AF2B"/>
		<stop  offset="0.4272" style="stop-color:#FAB43F"/>
		<stop  offset="0.4689" style="stop-color:#FBBC57"/>
		<stop  offset="0.5058" style="stop-color:#FCC573"/>
		<stop  offset="0.5391" style="stop-color:#FDD091"/>
		<stop  offset="0.5688" style="stop-color:#FDDCB2"/>
		<stop  offset="0.5758" style="stop-color:#FEDFBA"/>
		<stop  offset="0.7576" style="stop-color:#7CB929"/>
		<stop  offset="1" style="stop-color:#006633"/>
	</radialGradient>
	<path class="st1" d="M84.28,37.89c8.87-4.12,13.51-12.94,10.37-19.71c-3.19,10.88-56.51,16.11-72.27,13.19
		C6.45,28.42-0.7,8.25,21.49,8.82C15.14,7.06,8.43,9.17,5.57,14.09c-3.75,6.45,0.06,15.67,8.52,20.58
		C27.82,42.65,70.91,44.1,84.28,37.89z"/>
	
		<radialGradient id="SVGID_3_" cx="4631.729" cy="-8838.7529" r="72.4819" gradientTransform="matrix(-0.5038 -0.8638 0.8638 -0.5038 10054.4805 -423.066)" gradientUnits="userSpaceOnUse">
		<stop  offset="0" style="stop-color:#7CB929"/>
		<stop  offset="0.4594" style="stop-color:#CADE9D"/>
		<stop  offset="0.6006" style="stop-color:#9CB3AE"/>
		<stop  offset="1" style="stop-color:#0F4176"/>
	</radialGradient>
	<path class="st2" d="M35.05,73.56c-0.74,9.75,4.5,17.83,11.94,18.4c-9.67-8.29,15.42-55.68,23.99-69.23
		c11.47-18.14,31.21-3.04,20.14,10.28c4.61-4.62,6.04-11.6,3.15-16.5c-3.8-6.43-13.7-7.6-22.12-2.62
		C58.47,21.97,36.16,58.85,35.05,73.56z"/>
</g>
</svg>
